inDegrees=no
num_controls=7
num_derivatives=13
num_iterations=91
num_multipliers=7
num_parameters=0
num_slacks=7
num_states=26
objective=0.333760
objective_accelerations=0.036882
objective_balance=0.001296
objective_effort=0.026543
objective_height=0.267383
objective_ligament=0.001657
solver_duration=951.800863
status=Solve_Succeeded
success=true
DataType=double
version=3
OpenSimVersion=4.5
endheader
time	/jointset/ground_pelvis/pelvis_tilt/value	/jointset/ground_pelvis/pelvis_tx/value	/jointset/ground_pelvis/pelvis_ty/value	/jointset/hip_r/hip_flexion_r/value	/jointset/hip_r/hip_adduction_r/value	/jointset/hip_r/hip_rotation_r/value	/jointset/back/lumbar_extension/value	/jointset/patellofemoral_r/patellar_flexion_r/value	/jointset/knee_r/knee_flexion_r/value	/jointset/knee_r/knee_adduction_r/value	/jointset/knee_r/knee_rotation_r/value	/jointset/ankle_r/ankle_angle_r/value	/jointset/subtalar_r/subtalar_angle_r/value	/jointset/ground_pelvis/pelvis_tilt/speed	/jointset/ground_pelvis/pelvis_tx/speed	/jointset/ground_pelvis/pelvis_ty/speed	/jointset/hip_r/hip_flexion_r/speed	/jointset/hip_r/hip_adduction_r/speed	/jointset/hip_r/hip_rotation_r/speed	/jointset/back/lumbar_extension/speed	/jointset/patellofemoral_r/patellar_flexion_r/speed	/jointset/knee_r/knee_flexion_r/speed	/jointset/knee_r/knee_adduction_r/speed	/jointset/knee_r/knee_rotation_r/speed	/jointset/ankle_r/ankle_angle_r/speed	/jointset/subtalar_r/subtalar_angle_r/speed	/forceset/tau_hip_flexion_r	/forceset/tau_hip_adduction_r	/forceset/tau_hip_rotation_r	/forceset/tau_knee_flexion_r	/forceset/tau_ankle_angle_r	/forceset/tau_subtalar_angle_r	/forceset/tau_lumbar_extension	lambda_cid13_p0	lambda_cid14_p0	lambda_cid14_p1	lambda_cid14_p2	lambda_cid14_p3	lambda_cid14_p4	lambda_cid14_p5	/jointset/ground_pelvis/pelvis_tilt/accel	/jointset/ground_pelvis/pelvis_tx/accel	/jointset/ground_pelvis/pelvis_ty/accel	/jointset/hip_r/hip_flexion_r/accel	/jointset/hip_r/hip_adduction_r/accel	/jointset/hip_r/hip_rotation_r/accel	/jointset/back/lumbar_extension/accel	/jointset/patellofemoral_r/patellar_flexion_r/accel	/jointset/knee_r/knee_flexion_r/accel	/jointset/knee_r/knee_adduction_r/accel	/jointset/knee_r/knee_rotation_r/accel	/jointset/ankle_r/ankle_angle_r/accel	/jointset/subtalar_r/subtalar_angle_r/accel	gamma_cid13_p0	gamma_cid14_p0	gamma_cid14_p1	gamma_cid14_p2	gamma_cid14_p3	gamma_cid14_p4	gamma_cid14_p5
0	-0.01410763645373474	0.1354827821095237	0.9320105030017478	0.1934211968871041	-0.2428855053370555	-0.2312918632786048	-0.2903787966825928	0.2311786273363404	0.2311786273363406	0.1652236300990841	0.1721309979955577	0.089344008118978	0.04552133978454136	0	0	0	0	0	0	0	0	0	0	0	0	0	0.1081071948639386	-0.06383244601105519	0.007704200903133293	-0.2547873706188946	0.1353460152269855	-0.1302605105818441	-0.02867138699523399	-30.0060884635871	-4.466661276991972	-51.97281351553859	2.560961277185125	-2.09731723296446	-609.907435589353	25.10554408312056	-1.979864549424384	-1.801636433325046	-0.84155105462796	10.10753539767422	0.004210995757813482	2.621698249979698	-6.280240945377489	10.29742012973784	10.29742012973831	-2.554563025641368	0.2945755608793982	2.882596431408832	0.7603580099235822	6.415094068556773e-08	3.777103902034432e-08	-4.75311511626034e-07	2.3069798982842e-07	1.926664387032186e-08	1.671807177630811e-07	-3.320405964626477e-07
0.01	-0.01420072940660651	0.135394601178668	0.9319696220259758	0.1939131105486932	-0.2428833320150332	-0.2311583572284124	-0.2906937759908699	0.2316837710308178	0.2316837710308173	0.1650945115534081	0.1721394750909057	0.08948698045931901	0.04556142542757271	-0.01855785936191347	-0.01746866564526665	-0.008154238403278551	0.09785380048310217	0.0004230765516765825	0.02656895520162987	-0.06253142420371591	0.1005722777037958	0.1005722777037953	-0.02567577577900165	0.001689056025098846	0.02857012512421194	0.007999288298733847	0.1058509123148393	-0.08082908223889064	0.007914596511463069	-0.2556476495113657	0.1347383680253247	-0.1163036265154149	-0.02596839481798649	-30.01073768687013	-4.011161965356298	-45.61855857602497	1.304591246711621	-4.168608016811092	-611.5366033725874	38.53073169723021	-1.78463842158735	-1.694349697892171	-0.7990332843675105	9.544963463477997	0.05958725312713432	2.654708185693164	-6.169927540135932	9.868649581717168	9.868649581716852	-2.55194953067473	0.1051653097268936	2.840580623238388	0.8169903517137158	9.20471555752551e-08	3.184192229157048e-08	-6.47003378046129e-07	3.238078779486218e-07	4.693490651946128e-08	4.464659847082105e-08	-4.714418343730647e-07
0.02	-0.01447757931149927	0.1351367599778067	0.9318478640559331	0.1953676944330845	-0.2428772816738426	-0.230763118820117	-0.2916201364176373	0.2331809411005389	0.2331809411005386	0.1647130623146244	0.1721646616837777	0.08991492606496383	0.04568095917596449	-0.03675139040433176	-0.0339320540011182	-0.01617539885413954	0.1925340445601941	0.000775403833534007	0.0523464716208014	-0.122276223698125	0.1984052750482605	0.1984052750482594	-0.05046613862381169	0.003341899506268753	0.05699465306086485	0.01588962107208564	0.1035946297657502	-0.09782571846672321	0.008124992119770413	-0.2565079284038261	0.1341307208236684	-0.1023467424489806	-0.02326540264073443	-30.02423851742551	-3.474945424021556	-39.27270101871463	0.07529822658824153	-6.19003149861562	-611.8562733875989	51.66355794871271	-1.90699888552536	-1.600580975442016	-0.8149354641444491	9.472824116472179	-0.009938858206016171	2.463410493488029	-5.72291600351612	9.749564057871606	9.749564057872057	-2.377480438803048	0.287333052093609	2.853476993897037	0.7385669048471771	1.199433704649425e-07	2.591280556279664e-08	-8.18695244466224e-07	4.169177660688236e-07	7.460316916860072e-08	-7.788752082143897e-08	-6.108430722834817e-07
0.03	-0.01493478987020194	0.1347181867305095	0.9316462638118537	0.1977548106612525	-0.2428683338304042	-0.2301151471722211	-0.2931303232797691	0.235642824484727	0.2356428244847265	0.1640888399551904	0.1722072177148196	0.09062475430775388	0.04587810337085373	-0.05461460893009662	-0.04972656605694833	-0.02414476648411546	0.284470384288346	0.0009907627864513837	0.07714366572795861	-0.1793712279306431	0.2934933035762904	0.2934933035762901	-0.07417498930197386	0.005118441415932208	0.08478552099600666	0.02346380313690846	0.09753848899461204	-0.09718581471534687	0.009076715799353095	-0.2495748441010557	0.1239381118543783	-0.09814233909345275	-0.01840955996422661	-30.04599373788274	-6.548148675722468	-37.87945816015528	-0.2671772016372317	-4.525414782886257	-612.2259224159193	53.43726334093528	-1.714559095640013	-1.560466878000181	-0.7879709633704178	8.991221280608865	0.03372614349652638	2.472336339668606	-5.644304513502869	9.316683416906653	9.316683416906534	-2.337173838375568	0.1152717481578348	2.714086996637121	0.7554522333688454	1.351793876916413e-07	2.578564608163243e-08	-8.952343324467303e-07	4.732824454192782e-07	8.575714940964836e-08	-1.481350629457359e-07	-6.798215747099598e-07
0.04	-0.01556834776606921	0.1341433522511847	0.9313649631812851	0.2010487267626274	-0.2428579418231444	-0.2292223110891862	-0.2951997625603024	0.2390412403875237	0.2390412403875232	0.1632336117977657	0.1722660305625067	0.09160693029055821	0.04614871106160499	-0.07202085783738203	-0.06518430040664024	-0.03211547615193779	0.3738940192013847	0.001064236597605144	0.1013193586486773	-0.2341267073784907	0.385711778769839	0.3857117787698391	-0.09666729822224784	0.006593262835800703	0.1114642010637234	0.03058232024449223	0.09148234822347769	-0.09654591096397094	0.01002843947892766	-0.2426417597982821	0.113745502885089	-0.09393793573792511	-0.01355371728771626	-30.07481689593249	-9.547418608054297	-36.49302872291457	-0.5859953489973541	-2.821163232753003	-611.4036921718437	54.94275814503564	-1.815604961829482	-1.533225434214363	-0.8152038717137305	8.970283153449529	-0.03831588655873625	2.339110256200327	-5.255011046582004	9.17565339097532	9.175653390975731	-2.134172087225419	0.226988954134616	2.631039420412035	0.6474339133993751	1.501543699149795e-07	2.577811458495502e-08	-9.698115074697193e-07	5.288894915992225e-07	9.657062898248794e-08	-2.173045313139924e-07	-7.473480619718204e-07
